<?xml version="1.0" encoding="utf-8"?>
<!-- Generator: Adobe Illustrator 16.0.0, SVG Export Plug-In . SVG Version: 6.00 Build 0)  -->
<!DOCTYPE svg PUBLIC "-//W3C//DTD SVG 1.1//EN" "http://www.w3.org/Graphics/SVG/1.1/DTD/svg11.dtd">
<svg version="1.1" id="Layer_1" xmlns="http://www.w3.org/2000/svg" xmlns:xlink="http://www.w3.org/1999/xlink" x="0px" y="0px"
	 width="1080px" height="250px" viewBox="0 0 1080 250" enable-background="new 0 0 1080 250" xml:space="preserve">
<g>
	<g>
		<g>
			<path fill="#F3CB69" d="M118.132,140.061c0.529-0.088,1.057-0.15,1.581-0.194c0.137-0.308,0.254-0.628,0.343-0.963
				c0.022-0.069,0.041-0.139,0.061-0.209c-2.624-2.65-4.722-5.905-6.055-9.651c-4.874-13.701,2.306-28.789,16.038-33.7
				s28.814,2.215,33.688,15.915c2.45,6.887,1.854,14.123-1.087,20.241c-1.809,5.618-6.488,13.208-13.091,20.61
				c-7.41,8.312-15.327,14.241-20.868,16.095c-1.712,0.889-3.612,1.534-5.65,1.871c-9.328,1.55-18.003-3.912-19.373-12.2
				C102.35,149.585,108.803,141.61,118.132,140.061z"/>
			<path fill="#F3CB69" d="M115.863,85.53c-0.498,4.743,3.178,9.017,8.207,9.547c5.031,0.529,9.511-2.885,10.009-7.627
				c0.496-4.742-3.179-9.017-8.208-9.546C120.841,77.374,116.361,80.789,115.863,85.53z"/>
			<path fill="#F3CB69" d="M135.861,85.547c-0.534,3.602,2.129,6.982,5.948,7.552c3.821,0.569,7.352-1.889,7.884-5.489
				c0.535-3.603-2.129-6.983-5.949-7.552C139.926,79.487,136.395,81.945,135.861,85.547z"/>
			
				<ellipse transform="matrix(-0.9945 -0.1049 0.1049 -0.9945 302.2567 201.2493)" fill="#F3CB69" cx="156.419" cy="92.679" rx="5.913" ry="5.574"/>
			
				<ellipse transform="matrix(-0.9999 -0.0119 0.0119 -0.9999 328.933 205.6653)" fill="#F3CB69" cx="165.078" cy="101.854" rx="5.172" ry="4.875"/>
			
				<ellipse transform="matrix(-0.9945 -0.1047 0.1047 -0.9945 324.6621 240.439)" fill="#F3CB69" cx="168.642" cy="111.698" rx="4.081" ry="3.847"/>
		</g>
		<path fill="#FFFFFF" d="M108.793,143.448c-0.664-0.042-1.321-0.054-1.975-0.042c-0.203-0.357-0.383-0.732-0.531-1.128
			c-0.034-0.081-0.065-0.165-0.097-0.247c2.94-3.547,5.163-7.758,6.388-12.476c4.476-17.253-6.08-34.706-23.58-38.983
			c-17.498-4.277-35.314,6.24-39.79,23.493c-2.25,8.671-0.702,17.392,3.616,24.466c2.86,6.605,9.491,15.254,18.471,23.439
			c10.08,9.185,20.517,15.418,27.562,16.987c2.213,0.869,4.631,1.42,7.185,1.58c11.688,0.735,21.779-6.974,22.538-17.216
			C129.34,153.08,120.481,144.181,108.793,143.448z"/>
		<path fill="#A1BBE5" d="M105.936,144.499c-0.62-0.075-1.234-0.12-1.845-0.142c-0.176-0.354-0.328-0.724-0.448-1.11
			c-0.029-0.079-0.055-0.161-0.081-0.24c2.904-3.244,5.168-7.162,6.518-11.618c4.937-16.292-4.188-33.566-20.378-38.582
			c-16.189-5.016-33.316,4.125-38.252,20.417c-2.481,8.189-1.41,16.625,2.324,23.629c2.391,6.479,8.221,15.111,16.271,23.423
			c9.034,9.331,18.532,15.849,25.058,17.723c2.032,0.948,4.272,1.603,6.654,1.89c10.906,1.317,20.684-5.536,21.838-15.311
			C124.747,154.805,116.842,145.815,105.936,144.499z"/>
		<g>
			<path fill="#A1BBE5" d="M105.704,80.566c0.826,5.523-3.214,10.721-9.021,11.608c-5.809,0.888-11.188-2.869-12.013-8.393
				c-0.826-5.523,3.214-10.72,9.021-11.608C99.5,71.286,104.879,75.043,105.704,80.566z"/>
			<path fill="#A1BBE5" d="M82.502,81.649c0.809,4.187-2.104,8.285-6.507,9.154c-4.402,0.87-8.627-1.818-9.435-6.005
				c-0.81-4.186,2.104-8.284,6.506-9.153S81.693,77.464,82.502,81.649z"/>
			<path fill="#A1BBE5" d="M65.814,90.051c0.533,3.566-2.074,6.923-5.825,7.496c-3.751,0.574-7.225-1.853-7.757-5.419
				c-0.533-3.566,2.075-6.922,5.825-7.495C61.809,84.06,65.281,86.485,65.814,90.051z"/>
			<path fill="#A1BBE5" d="M55.454,101.941c0.178,3.149-2.362,5.858-5.675,6.05c-3.312,0.191-6.142-2.206-6.319-5.355
				c-0.179-3.149,2.361-5.857,5.674-6.05C52.445,96.395,55.275,98.792,55.454,101.941z"/>
			<path fill="#A1BBE5" d="M50.525,113.28c0.368,2.461-1.432,4.776-4.021,5.173c-2.587,0.396-4.983-1.278-5.352-3.739
				s1.432-4.777,4.02-5.173C47.762,109.146,50.157,110.82,50.525,113.28z"/>
		</g>
		<g>
			<g>
				<path fill="#FFFFFF" d="M112.77,140.28c-0.334-0.067-0.67-0.118-1.003-0.158c-0.077-0.187-0.141-0.379-0.186-0.58
					c-0.013-0.042-0.021-0.084-0.032-0.126c1.768-1.499,3.221-3.37,4.201-5.555c3.586-7.986-0.483-17.121-9.092-20.402
					c-8.607-3.281-18.492,0.533-22.077,8.52c-1.802,4.015-1.67,8.318,0,12.023c0.961,3.378,3.692,8.003,7.657,12.567
					c4.45,5.125,9.307,8.853,12.783,10.101c1.064,0.571,2.257,1.006,3.547,1.263c5.909,1.17,11.641-1.832,12.801-6.707
					S118.68,141.45,112.77,140.28z"/>
				<path fill="#FFFFFF" d="M110.108,140.29c0.335-0.069,0.671-0.122,1.004-0.165c0.079-0.187,0.144-0.381,0.191-0.582
					c0.012-0.041,0.022-0.083,0.032-0.125c-1.754-1.486-3.191-3.346-4.153-5.521c-3.516-7.959,0.634-17.126,9.271-20.478
					c8.637-3.351,18.486,0.384,22.003,8.342c1.767,4,1.598,8.305-0.104,12.023c-0.989,3.387-3.762,8.033-7.766,12.631
					c-4.495,5.16-9.384,8.927-12.873,10.203c-1.067,0.581-2.264,1.024-3.557,1.291c-5.92,1.219-11.625-1.737-12.743-6.604
					C100.296,146.441,104.188,141.509,110.108,140.29z"/>
			</g>
			<g>
				<path fill="#FF4365" d="M112.586,139.545c-0.287-0.058-0.574-0.102-0.859-0.135c-0.065-0.16-0.12-0.325-0.159-0.497
					c-0.01-0.036-0.018-0.072-0.025-0.107c1.512-1.283,2.755-2.884,3.594-4.753c3.068-6.833-0.414-14.648-7.779-17.457
					c-7.364-2.807-15.821,0.457-18.89,7.29c-1.541,3.435-1.429,7.117,0,10.287c0.822,2.892,3.159,6.847,6.552,10.753
					c3.808,4.385,7.963,7.574,10.938,8.642c0.909,0.49,1.931,0.86,3.035,1.08c5.055,1.001,9.96-1.567,10.951-5.737
					C120.936,144.738,117.642,140.546,112.586,139.545z"/>
				<path fill="#FF4365" d="M110.308,139.554c0.287-0.06,0.573-0.104,0.86-0.143c0.068-0.159,0.123-0.324,0.163-0.497
					c0.01-0.035,0.019-0.071,0.027-0.107c-1.5-1.271-2.729-2.862-3.553-4.724c-3.008-6.81,0.542-14.653,7.931-17.521
					s15.818,0.328,18.826,7.137c1.513,3.422,1.367,7.106-0.089,10.288c-0.848,2.896-3.219,6.873-6.645,10.806
					c-3.847,4.416-8.029,7.639-11.013,8.73c-0.916,0.498-1.938,0.878-3.045,1.104c-5.065,1.044-9.946-1.486-10.902-5.649
					C101.912,144.816,105.243,140.598,110.308,139.554z"/>
			</g>
		</g>
	</g>
</g>
<g>
	<g>
		<g>
			<path opacity="0.1091" fill="#22B573" d="M36.291,118.551c0.031-4.191,0.485-8.335,1.359-12.434
				c-0.026,0.104-0.051,0.209-0.078,0.313c0.526-2.068,1.053-4.137,1.58-6.205c-0.029,0.103-0.06,0.205-0.089,0.309
				c1.159-3.79,2.662-7.438,4.508-10.944c1.81-3.434,3.909-6.683,6.295-9.746c5.603-7.882,13.716-13.586,21.906-18.439
				c6.78-4.017,14.526-5.971,22.148-7.571c10.098-2.118,20.555-0.787,30.485,1.375c7.805,1.698,14.907,5.647,21.638,9.765
				c8.363,5.115,14.807,12.761,20.426,20.625c4.59,6.425,7.236,13.963,9.506,21.43c1.009,3.895,1.686,7.848,2.029,11.858
				c0.796,6.191-0.007,12.446-0.8,18.574c-1.038,8.028-4.483,15.517-8.132,22.622c-4.511,8.781-11.78,15.783-19.297,21.956
				c-6.124,5.028-13.5,8.197-20.82,10.988c-9.629,3.674-20.108,3.977-30.243,3.458c-8.252-0.424-16.125-3.279-23.656-6.418
				c-9.141-3.812-16.729-10.517-23.502-17.544c-6.82-7.075-11.142-16.089-14.598-25.141c-3.62-9.481-3.916-19.796-3.391-29.773
				c0.066-1.27-1.474,3.089-1.249,2.447c-0.577,1.647-1.135,3.3-1.675,4.959c-0.317,0.854-0.563,1.728-0.74,2.618
				c0.571,8.526,1.586,17.266,5.006,25.209c2.431,5.642,4.951,11.358,8.719,16.275c3.7,4.831,7.495,9.737,12.285,13.57
				c5.125,4.1,4.148,3.391,9.593,7.068c3.477,2.348,7.172,3.906,10.958,5.648c7.791,3.587,16.406,4.872,24.846,5.718
				c6.515,0.653,13.059-0.365,19.466-1.373c6.241-0.981,12.115-3.503,17.865-5.978c3.611-1.555,7.121-3.966,10.41-6.071
				c1.801-1.152,3.531-2.448,5.122-3.872c5.072-4.541,3.884-3.38,8.576-8.312c2.846-2.991,5.003-6.401,7.32-9.789
				c3.498-5.109,5.689-10.955,7.826-16.71c2.209-5.951,2.871-12.325,3.52-18.58c0.67-6.469-0.335-12.972-1.33-19.334
				c-0.969-6.204-3.485-12.039-5.95-17.75c-2.442-5.651-6.225-10.597-9.931-15.444c-3.722-4.866-8.545-8.745-13.28-12.548
				c-6.44-5.176-14.167-8.388-21.833-11.208c-5.977-2.198-12.374-2.859-18.651-3.508c-6.493-0.674-13.019,0.306-19.411,1.279
				c-6.224,0.947-12.09,3.427-17.834,5.863c-5.671,2.404-10.648,6.147-15.527,9.816c-4.887,3.676-8.796,8.455-12.63,13.151
				c-3.888,4.762-6.54,10.37-9.141,15.88c-4.427,9.379-5.758,20.289-6.843,30.458c0.381-0.146,0.691-0.396,0.929-0.75
				c0.99-1.094,1.957-2.207,2.905-3.337c0.959-1.12,1.897-2.259,2.815-3.413C36.014,119.299,36.209,118.953,36.291,118.551z"/>
			<path opacity="0.1091" fill="#22B573" d="M36.617,119.905c0.052-4.184,0.52-8.322,1.399-12.413
				c1.653-7.856,4.63-15.095,8.932-21.712c4.929-8.403,12.637-14.792,20.47-20.31c6.435-4.533,14-7.084,21.466-9.268
				c9.891-2.894,20.392-2.338,30.446-0.976c8.007,1.085,15.475,4.53,22.568,8.182c8.723,4.489,15.704,11.675,21.869,19.123
				c6.271,7.578,9.888,16.897,12.633,26.199c2.902,9.838,2.367,20.279,1.011,30.287c-1.081,7.968-4.535,15.393-8.188,22.44
				c-4.512,8.7-11.734,15.643-19.202,21.771c-6.083,4.992-13.398,8.15-20.662,10.939c-9.56,3.674-19.968,4.021-30.044,3.551
				c-8.215-0.384-16.065-3.178-23.581-6.258c-9.144-3.748-16.755-10.391-23.555-17.359c-6.872-7.045-11.248-16.049-14.75-25.098
				c-3.685-9.512-4.014-19.879-3.514-29.908c0.054-1.081-1.445,2.325-1.227,1.84c-0.57,1.273-1.121,2.555-1.655,3.845
				c-0.313,0.66-0.557,1.344-0.733,2.05c0.057,4.297,0.478,8.556,1.264,12.778c0.883,6.186,3.309,12.025,5.687,17.738
				c3.927,9.438,10.812,17.281,18.041,24.297c7.381,7.164,16.812,11.694,26.28,15.32c3.978,1.337,8.038,2.337,12.182,2.997
				c6.378,1.291,12.94,0.936,19.376,0.585c10.504-0.572,20.455-4.613,29.689-9.314c9.109-4.639,16.424-12.062,22.893-19.79
				c6.622-7.91,10.421-17.682,13.294-27.435c1.023-4.103,1.691-8.262,2.007-12.478c0.757-6.429-0.15-12.914-1.049-19.261
				c-1.458-10.278-6.308-19.715-11.721-28.388c-5.409-8.667-13.441-15.298-21.696-21.066c-8.55-5.974-18.732-8.923-28.806-10.958
				c-4.263-0.677-8.555-0.988-12.872-0.934c-6.439-0.194-12.793,1.24-19.015,2.657C75.78,55.874,66.8,61.409,58.604,67.443
				c-6.57,4.839-11.559,11.343-16.194,17.942c-8.347,11.881-11.167,26.827-12.667,40.938c0.345-0.057,0.635-0.228,0.873-0.508
				c0.937-0.811,1.856-1.643,2.757-2.494c0.911-0.84,1.804-1.7,2.675-2.58C36.347,120.523,36.536,120.246,36.617,119.905z"/>
			<path opacity="0.1091" fill="#22B573" d="M37.414,116.276c0.122-2.072,0.244-4.144,0.364-6.216
				c0.837-7.931,3.197-15.46,7.083-22.593c2.564-5.251,6.54-9.686,10.381-14.004c1.409-1.332,2.819-2.663,4.229-3.995
				c11.026-9.157,23.264-14.631,36.718-16.421c8.103-1.423,16.396-0.414,24.413,0.901c5.968,0.979,11.563,3.479,17.027,5.928
				c5.361,2.403,10.026,6.094,14.594,9.704c1.414,1.316,2.829,2.633,4.245,3.949c9.938,10.291,16.349,22.062,19.232,35.312
				c2.033,7.813,1.701,15.988,1.062,23.936c-0.489,6.066-2.521,11.854-4.54,17.531c-1.968,5.53-5.307,10.455-8.565,15.271
				c-3.248,4.799-7.611,8.719-11.879,12.562c-2.968,2.462-6.111,4.674-9.432,6.637c-12.558,7.164-25.691,10.523-39.402,10.077
				c-6.188,0.054-12.233-1.419-18.18-2.908c-7.694-1.927-14.615-6.083-21.158-10.391c-4.866-3.204-8.866-7.529-12.789-11.77
				c-10.014-11.734-15.703-25.859-17.063-42.372c-0.227-4.098-0.107-8.187,0.361-12.265c0.034-0.487-0.186-0.662-0.429-0.13
				c-0.41,0.893-0.933,2.187-0.969,3.175c-0.252,2.231-0.327,4.462-0.225,6.692c0.321,6.594,0.219,5.453,1.106,11.95
				c0.831,6.088,3.16,11.848,5.477,17.476c2.245,5.458,5.784,10.264,9.252,14.971c3.476,4.719,8.02,8.511,12.48,12.231
				c4.525,3.771,9.87,6.369,15.126,8.916c5.421,2.626,11.378,3.837,17.228,5.024c6.01,1.22,12.228,0.9,18.297,0.601
				c5.824-0.287,11.461-1.95,17-3.605c5.301-1.585,10.967-4.256,15.545-7.356c1.553-1.052,3.106-2.104,4.659-3.155
				c3.12-2.295,6.04-4.821,8.761-7.578c4.271-3.999,7.5-8.935,10.67-13.793c3.264-5.005,5.208-10.704,7.111-16.309
				c1.992-5.867,2.408-12.123,2.825-18.242c0.681-10.017-1.978-19.904-5.356-29.2c-1.917-5.273-5.085-10.889-8.562-15.287
				c-4.363-5.52-2.707-3.58-7.496-8.738c-4.035-4.345-9.03-7.625-13.946-10.845c-5.077-3.325-10.868-5.301-16.56-7.236
				c-5.958-2.026-12.314-2.449-18.529-2.872c-6.126-0.418-12.227,0.703-18.208,1.817c-2.062,0.383-4.109,0.973-6.086,1.694
				c-5.654,2.066-11.436,4.227-16.422,7.7c-1.657,1.153-3.315,2.308-4.972,3.46c-3.211,2.446-6.19,5.147-8.935,8.107
				c-4.297,4.253-7.384,9.529-10.392,14.703c-5.23,9.001-6.734,19.588-7.582,29.76c-0.056,0.656,0.982-0.637,0.884-0.515
				C36.298,118.034,37.371,117.015,37.414,116.276z"/>
			<path opacity="0.1091" fill="#22B573" d="M38.243,119.979c0.244-4.022,0.489-8.045,0.732-12.069
				c0.796-3.916,2.005-7.7,3.63-11.351c2.764-7.247,7.822-13.365,12.923-19.049c3.842-4.281,8.702-7.496,13.448-10.646
				c6.486-4.306,14.043-6.608,21.484-8.551c5.83-1.521,11.918-1.548,17.887-1.578c8.223-0.042,16.191,2.309,23.855,4.998
				c3.643,1.459,7.142,3.206,10.497,5.24c10.165,6.302,18.241,14.382,24.226,24.241c4.31,6.502,6.663,14.036,8.649,21.488
				c1.551,5.821,1.603,11.905,1.654,17.873c0.071,8.229-2.291,16.199-4.997,23.86c-1.977,5.601-5.355,10.581-8.652,15.451
				c-13.488,16.6-29.727,26.146-48.716,28.636c-4.022,0.522-8.061,0.708-12.115,0.559c-6.217,0.03-12.292-1.487-18.258-3.018
				c-7.7-1.974-14.609-6.18-21.139-10.535c-6.461-4.311-11.545-10.34-16.256-16.403c-10.719-13.793-14.154-33.797-12.803-50.442
				c0.042-0.509-0.693,0.056-0.721,0.431c-0.438,6.071-0.886,12.256,0.204,18.304c1.315,7.297,0.649,4.309,2.555,11.444
				c1.52,5.69,4.398,10.9,7.224,16.009c2.841,5.14,6.868,9.498,10.818,13.774c4.022,4.354,9.015,7.647,13.924,10.877
				c5.067,3.334,10.852,5.323,16.537,7.27c7.927,2.711,16.455,2.946,24.723,2.838c8.097-0.104,15.885-2.524,23.414-5.23
				c5.415-1.944,11.219-5.182,15.729-8.756c4.723-3.742,4.243-3.314,8.644-7.426c3.098-2.893,5.381-6.068,7.956-9.401
				c3.73-4.831,6.151-10.49,8.518-16.052c3.287-7.725,4.076-16.215,4.497-24.485c0.515-10.12-2.37-19.978-5.988-29.28
				c-2.048-5.265-5.387-10.854-9-15.196c-3.669-4.408-7.427-8.865-12.069-12.313c-5.369-3.986-3.665-2.821-9.35-6.367
				c-3.329-2.078-7.009-3.47-10.602-4.987c-5.675-2.396-11.832-3.294-17.869-4.169c-6.08-0.879-12.263-0.229-18.316,0.423
				c-7.835,0.843-15.222,3.91-22.28,7.203c-5.261,2.454-9.814,6.14-14.278,9.768c-4.511,3.665-7.996,8.376-11.404,13.015
				c-3.52,4.789-5.633,10.392-7.701,15.894c-1.121,4.022-2.043,8.09-2.764,12.203c-0.325,1.875-0.057,3.755,0.806,5.64
				C37.563,120.544,38.264,120.258,38.243,119.979z"/>
			<path opacity="0.1091" fill="#22B573" d="M35.862,120.649c0.044-4.174,0.511-8.3,1.399-12.379
				c2.126-9.921,6.205-18.774,12.238-26.558c5.636-7.985,13.82-13.768,22.09-18.681c6.843-4.066,14.669-6.033,22.369-7.636
				c4.039-0.664,8.105-0.988,12.2-0.969c6.271-0.235,12.451,1.11,18.518,2.462c7.84,1.748,14.956,5.771,21.692,9.961
				c8.345,5.191,14.741,12.915,20.302,20.847c4.528,6.458,7.107,14.014,9.311,21.494c2.9,9.851,2.358,20.305,0.994,30.321
				c-1.086,7.965-4.541,15.385-8.198,22.427c-4.508,8.685-11.716,15.614-19.168,21.733c-6.066,4.981-13.359,8.14-20.601,10.932
				c-9.531,3.674-19.908,4.042-29.958,3.598c-8.194-0.363-16.034-3.121-23.541-6.165c-9.139-3.705-16.766-10.294-23.588-17.213
				c-6.902-6.999-11.326-15.964-14.885-24.981c-3.744-9.488-4.143-19.853-3.709-29.886c0.048-1.123-1.444,2.505-1.225,1.983
				c-0.566,1.361-1.114,2.728-1.645,4.104c-0.31,0.705-0.553,1.434-0.727,2.183c0.161,2.17,0.323,4.339,0.483,6.509
				c0.499,4.232,1.351,8.393,2.558,12.479c1.514,6.054,4.514,11.611,7.452,17.049c2.923,5.415,7.113,10.016,11.219,14.525
				c5.537,6.08,12.636,10.444,19.73,14.417c5.464,3.058,11.563,4.714,17.552,6.336c6.256,1.695,12.797,1.778,19.217,1.863
				c6.484,0.084,12.855-1.465,19.093-2.997c8.096-1.99,15.41-6.262,22.345-10.708c5.178-3.321,9.458-7.826,13.654-12.25
				c4.235-4.465,7.308-9.863,10.321-15.168c3.081-5.425,4.756-11.492,6.396-17.452c2.294-8.34,2.036-17.102,1.418-25.619
				c-0.162-2.229-0.545-4.471-1.086-6.646c-1.024-4.119-1.877-8.146-3.589-12.062c-2.708-6.192-2.087-4.908-5.289-10.842
				c-1.949-3.611-4.597-6.792-7.091-10.017c-3.759-4.864-8.6-8.75-13.376-12.542c-4.708-3.734-10.737-7.107-16.391-9.145
				c-6.465-2.331-4.986-1.864-11.645-3.661c-4.162-1.123-8.41-1.375-12.67-1.788c-2.276-0.22-4.587-0.249-6.865-0.081
				c-4.324,0.323-8.68,0.48-12.917,1.532c-6.082,1.512-12.266,3.081-17.84,6.067c-6.006,3.216-4.66,2.419-10.373,6.105
				c-3.468,2.238-6.378,5.051-9.423,7.8c-1.582,1.427-3.067,2.987-4.399,4.646c-2.521,3.146-5.243,6.295-7.237,9.827
				c-1.005,1.779-2.01,3.559-3.015,5.337c-1.885,3.676-3.458,7.481-4.72,11.415c-1.264,4.01-2.222,8.091-2.874,12.245
				c-0.84,3.935-1.409,7.909-1.707,11.92c0.357-0.064,0.659-0.243,0.905-0.535c0.98-0.843,1.942-1.708,2.884-2.593
				c0.954-0.874,1.888-1.768,2.803-2.681C35.569,121.289,35.77,121.001,35.862,120.649z"/>
			<path opacity="0.1091" fill="#22B573" d="M36.34,119.214c0.125-2.103,0.248-4.207,0.372-6.31c0.482-4.079,1.315-8.084,2.5-12.017
				c-0.034,0.103-0.068,0.204-0.101,0.305c0.71-1.977,1.42-3.955,2.128-5.932c-0.037,0.1-0.076,0.199-0.115,0.299
				c1.5-3.63,3.316-7.095,5.448-10.393c2.104-3.255,4.472-6.306,7.104-9.152c6.287-7.415,14.858-12.464,23.463-16.659
				c7.167-3.494,15.14-4.812,22.957-5.783c4.121-0.335,8.24-0.327,12.357,0.028c6.167,0.27,12.121,2.093,17.96,3.904
				c7.572,2.349,14.269,6.843,20.591,11.47c7.906,5.786,13.697,13.916,18.651,22.208c4.069,6.814,6.079,14.587,7.716,22.258
				c0.682,4.012,1.023,8.054,1.02,12.125c0.262,6.231-1.062,12.378-2.393,18.409c-1.725,7.812-5.738,14.898-9.916,21.603
				c-5.203,8.351-12.961,14.733-20.913,20.285c-6.515,4.549-14.132,7.134-21.668,9.348c-3.934,0.98-7.921,1.63-11.961,1.948
				c-6.24,0.753-12.535-0.08-18.705-0.903c-8.058-1.077-15.577-4.533-22.719-8.197c-8.772-4.501-15.791-11.722-21.988-19.208
				c-5.013-6.059-8.189-13.357-10.988-20.609c-3.667-9.497-3.995-19.842-3.498-29.85c0.062-1.241-1.531,2.954-1.298,2.353
				c-0.613,1.593-1.207,3.193-1.781,4.799c-0.335,0.826-0.601,1.674-0.797,2.54c0.471,6.491,0.984,13.078,3.103,19.297
				c2.205,6.468,1.673,5.087,4.403,11.326c1.65,3.774,4.039,7.17,6.271,10.6c3.26,5.005,7.885,10.076,12.563,13.788
				c5.202,4.126,4.131,3.347,9.654,7.045c3.463,2.32,7.24,3.884,11.009,5.604c1.984,0.903,4.054,1.655,6.158,2.223
				c4.07,1.098,8.116,2.348,12.341,2.757c7.246,0.7,5.347,0.599,12.684,0.68c4.396,0.05,8.63-0.79,12.938-1.482
				c2.194-0.353,4.374-0.891,6.478-1.605c3.972-1.347,7.965-2.538,11.688-4.531c6.044-3.236,4.652-2.417,10.403-6.123
				c3.459-2.231,6.411-5.091,9.449-7.83c1.585-1.429,3.058-3.005,4.396-4.67c2.591-3.227,5.19-6.248,7.243-9.873
				c0.962-1.701,1.925-3.402,2.889-5.104c1.889-3.68,3.464-7.492,4.723-11.436c2.94-8.041,3.409-16.703,3.513-25.157
				c0.079-6.451-1.491-12.786-3.041-18.985c-2.015-8.059-6.324-15.318-10.8-22.197c-3.35-5.149-7.884-9.39-12.331-13.549
				c-6.022-5.632-13.467-9.417-20.881-12.81c-5.741-2.625-12.01-3.778-18.162-4.909c-8.569-1.575-17.354-0.585-25.854,0.754
				c-6.234,0.982-12.099,3.501-17.841,5.974c-7.557,3.252-13.999,8.566-20.056,13.993c-2.537,2.271-6.312,6.631-8.217,9.422
				c-2.298,3.365-4.723,6.668-6.45,10.389c-2.888,6.219-2.309,4.818-4.73,11.409c-1.27,4.011-2.226,8.095-2.87,12.253
				c-0.825,3.978-1.394,7.993-1.707,12.044c0.388-0.126,0.709-0.359,0.96-0.703c1.037-1.042,2.053-2.104,3.049-3.185
				c1.009-1.07,1.996-2.158,2.963-3.265C36.03,119.946,36.241,119.61,36.34,119.214z"/>
			<path opacity="0.1091" fill="#22B573" d="M36.669,120.378c0.132-2.062,0.265-4.126,0.397-6.19
				c0.457-4.079,1.284-8.082,2.48-12.007c1.947-7.611,6.44-14.345,10.984-20.598c4.543-6.25,10.858-10.962,17.141-15.286
				c6.448-4.438,14.001-6.887,21.451-8.973c7.857-2.201,16.13-2.016,24.173-1.522c8.162,0.501,15.923,3.403,23.343,6.584
				c7.23,3.101,13.382,8.217,19.156,13.423c5.791,5.22,9.972,11.926,13.78,18.629c2.911,5.123,4.515,10.846,6.083,16.469
				c2.186,7.84,1.99,16.083,1.477,24.103c-0.435,4.084-1.222,8.1-2.364,12.046c-12.854,29.891-32.354,46.825-58.5,50.804
				c-8.133,1.576-16.494,0.72-24.593-0.451c-7.999-1.159-15.431-4.676-22.489-8.399c-6.936-3.658-12.651-9.211-17.991-14.827
				c-5.375-5.657-9.028-12.668-12.307-19.654c-5.127-10.927-5.9-23.753-5.175-35.533c0.042-0.656-0.81,0.91-0.708,0.681
				c-0.332,0.736-0.845,1.651-0.859,2.48c-0.106,6.188-0.187,12.48,1.264,18.554c1.396,5.844,2.867,11.752,5.669,17.125
				c2.751,5.274,5.6,10.574,9.564,15.072c1.243,1.41,2.484,2.821,3.728,4.231c2.761,2.89,5.738,5.541,8.929,7.949
				c4.705,3.86,10.255,6.482,15.711,9.055c3.718,1.751,7.844,2.724,11.777,3.815c2.144,0.597,4.371,0.99,6.591,1.207
				c6.354,0.623,12.831,1.188,19.192,0.168c6.081-0.975,12.278-2.01,17.974-4.491c5.377-2.341,5.359-2.317,10.514-5.087
				c3.752-2.017,6.868-4.579,10.223-7.159c4.78-3.676,8.575-8.435,12.297-13.111c3.783-4.753,6.312-10.335,8.792-15.82
				c2.561-5.671,3.614-11.863,4.645-17.937c1.064-6.27,0.483-12.685-0.091-18.955c-0.558-6.101-2.645-11.938-4.695-17.65
				c-2.022-5.639-5.393-10.675-8.693-15.61c-3.308-4.944-7.742-9.001-12.095-12.98c-4.41-4.032-9.702-6.923-14.904-9.759
				c-5.35-2.917-11.303-4.449-17.15-5.949c-6.111-1.566-12.486-1.544-18.734-1.525c-6.146,0.018-12.162,1.56-18.059,3.082
				c-5.774,1.492-11.075,4.366-16.27,7.187c-5.179,2.812-9.578,6.821-13.892,10.761c-4.364,3.985-7.648,8.955-10.867,13.848
				c-6.753,10.271-8.785,22.58-9.943,34.543c-0.058,0.615,1.003-0.353,0.997-0.346C35.044,122.024,36.627,121.009,36.669,120.378z"
				/>
			<path opacity="0.1091" fill="#22B573" d="M37.985,117.531c0.122-2.064,0.242-4.127,0.363-6.191
				c0.435-4.086,1.271-8.087,2.508-12.006c0.693-1.86,1.387-3.721,2.082-5.581c4.018-9.006,9.639-16.666,16.863-22.979
				c4.201-4.008,9.333-6.876,14.35-9.689c5.141-2.88,10.892-4.422,16.531-5.935c5.879-1.578,12.028-1.633,18.057-1.692
				c17.537-0.173,36.754,10.238,48.458,21.161c4.24,3.956,7.451,8.857,10.6,13.666c4.275,6.527,6.591,14.076,8.537,21.541
				c1.517,5.813,1.539,11.88,1.564,17.832c0.026,6.161-1.5,12.175-3.037,18.081c-1.493,5.741-4.439,10.983-7.316,16.106
				c-2.849,5.072-6.897,9.35-10.857,13.539c-8.005,8.473-18.729,13.714-29.546,17.505c-5.586,1.957-11.541,2.51-17.383,3.052
				c-4.074,0.209-8.139,0.082-12.191-0.383c-2.029-0.32-4.058-0.64-6.086-0.961c-18.907-26.178-37.815-52.355-56.722-78.533
				c0.047-0.664-0.812,0.969-0.708,0.726c-0.336,0.786-0.822,1.716-0.851,2.589c-0.144,2.091-0.21,4.186-0.198,6.28
				c0.351,6.706,0.205,5.255,1.122,11.866c0.834,6.023,3.118,11.711,5.403,17.288c2.222,5.425,5.722,10.213,9.152,14.905
				c1.798,2.459,5.587,6.524,7.928,8.498c4.44,3.748,8.976,7.564,14.227,10.163c5.311,2.63,10.729,5.272,16.573,6.529
				c5.975,1.284,12.042,2.518,18.201,2.291c1.945-0.072,3.89-0.145,5.834-0.215c3.954-0.308,7.859-0.932,11.71-1.873
				c5.704-1.152,11.033-3.651,16.261-6.094c5.31-2.481,9.932-6.156,14.475-9.783c4.585-3.659,8.206-8.339,11.761-12.942
				c2.282-3.218,4.285-6.603,6.008-10.151c2.879-5.354,4.327-11.313,5.741-17.167c1.461-6.05,1.325-12.367,1.194-18.527
				c-0.126-6.018-1.758-11.884-3.362-17.628c-1.59-5.691-4.55-10.885-7.447-15.974c-2.915-5.12-7.007-9.439-11.024-13.679
				c-4.102-4.33-9.172-7.578-14.149-10.768c-5.207-3.336-11.135-5.271-16.959-7.163c-6.094-1.979-12.577-2.3-18.911-2.624
				c-6.242-0.32-12.429,0.952-18.489,2.214c-5.916,1.232-11.405,3.917-16.779,6.554c-5.35,2.626-9.937,6.523-14.431,10.354
				c-3.015,2.57-5.444,5.731-7.96,8.754c-1.333,1.6-2.55,3.333-3.575,5.141c-0.984,1.731-1.967,3.464-2.95,5.196
				c-1.839,3.605-3.327,7.351-4.466,11.236c-1.981,5.747-2.335,12.065-2.845,18.063c-0.054,0.637,1.001-0.493,0.943-0.434
				C36.619,119.251,37.945,118.215,37.985,117.531z"/>
			<path opacity="0.1091" fill="#22B573" d="M36.492,120.989c0.111-2.05,0.222-4.1,0.334-6.151
				c0.692-6.039,2.188-11.852,4.488-17.438c1.991-5.543,5.495-10.417,8.882-15.153c3.39-4.739,7.945-8.509,12.382-12.197
				c4.508-3.745,9.859-6.292,15.102-8.79c5.387-2.568,11.3-3.741,17.098-4.893c6.072-1.206,12.319-0.844,18.439-0.502
				c6.187,0.346,12.137,2.262,17.971,4.165c5.681,1.851,10.785,5.098,15.779,8.272c4.957,3.152,9.058,7.451,13.079,11.663
				c4.039,4.234,6.988,9.351,9.88,14.379c2.939,5.111,4.577,10.831,6.178,16.452c1.656,5.812,1.816,11.912,1.976,17.896
				c0.165,6.187-1.235,12.265-2.643,18.229c-0.625,1.898-1.251,3.796-1.877,5.694c-42.929,4.385-85.857,8.77-128.785,13.155
				c-0.983-1.678-1.964-3.355-2.947-5.033c-2.983-5.095-4.663-10.809-6.307-16.425c-2.295-7.833-2.202-16.103-1.789-24.151
				c0.044-0.852-1.129,1.486-0.957,1.132c-0.488,1.003-1.646,2.687-1.612,3.856c-0.058,4.232,0.241,8.438,0.896,12.621
				c0.641,4.071,1.615,8.061,2.925,11.968c2.815,9.731,8.732,18.217,15.08,25.923c6.461,7.844,15.218,13.336,24.113,17.944
				c3.742,1.748,7.603,3.174,11.583,4.278c6.1,1.97,12.565,2.338,18.902,2.703c10.596,0.612,21.017-2.339,30.784-6.061
				c9.55-3.639,17.599-10.274,24.825-17.293c7.343-7.134,12.103-16.388,15.943-25.72c1.421-3.911,2.502-7.914,3.243-12.01
				c1.415-6.287,1.172-12.796,0.934-19.171c-0.312-8.346-3.083-16.367-6.116-24.036c-3.734-9.438-10.439-17.344-17.499-24.43
				c-7.192-7.219-16.457-11.863-25.778-15.61c-3.91-1.387-7.909-2.441-11.996-3.16c-6.281-1.379-12.77-1.129-19.134-0.882
				c-10.357,0.404-20.226,4.223-29.4,8.71c-9.024,4.413-16.324,11.591-22.791,19.091c-2.489,3.136-4.703,6.455-6.644,9.957
				c-3.188,5.23-4.976,11.141-6.721,16.951c-0.456,2.033-0.88,4.073-1.275,6.119c-0.923,4.439-1.167,7.479-1.589,11.942
				c-0.011,0.118,2.74-1.812,2.696-1.777C34.589,122.858,36.45,121.753,36.492,120.989z"/>
			<path opacity="0.1091" fill="#22B573" d="M35.958,119.984c0.039-4.182,0.5-8.314,1.384-12.401
				c1.637-7.848,4.59-15.087,8.859-21.714c4.897-8.422,12.571-14.848,20.375-20.406c6.416-4.569,13.971-7.163,21.43-9.388
				c9.891-2.952,20.41-2.45,30.488-1.138c8.032,1.045,15.534,4.461,22.663,8.086c8.772,4.458,15.808,11.636,22.024,19.083
				c6.326,7.577,9.986,16.918,12.77,26.241c0.988,3.896,1.644,7.847,1.969,11.851c0.763,6.18-0.062,12.418-0.877,18.531
				c-1.065,7.994-4.518,15.446-8.17,22.52c-4.508,8.727-11.74,15.692-19.217,21.841c-6.087,5.004-13.411,8.172-20.681,10.971
				c-9.563,3.68-19.976,4.036-30.057,3.572c-8.212-0.377-16.064-3.163-23.58-6.232c-9.14-3.734-16.753-10.356-23.562-17.306
				c-6.876-7.021-11.269-15.999-14.794-25.024c-3.705-9.485-4.073-19.835-3.614-29.851c0.055-1.181-1.46,2.742-1.238,2.171
				c-0.573,1.476-1.126,2.958-1.662,4.449c-0.314,0.765-0.559,1.551-0.735,2.358c0.133,4.324,0.632,8.606,1.5,12.845
				c0.999,6.216,3.547,12.055,6.047,17.767c4.127,9.439,11.208,17.217,18.623,24.154c7.57,7.082,17.159,11.47,26.769,14.946
				c4.032,1.273,8.142,2.205,12.329,2.795c6.45,1.184,13.052,0.709,19.529,0.238c10.572-0.768,20.524-5.027,29.738-9.938
				c9.091-4.844,16.316-12.465,22.683-20.378c6.515-8.096,10.149-18.014,12.855-27.891c1.704-6.222,1.786-12.734,1.867-19.123
				c0.081-6.454-1.488-12.793-3.037-18.994c-2.517-10.075-8.299-18.973-14.553-27.067c-6.297-8.15-15.008-13.996-23.867-18.954
				c-3.704-1.88-7.535-3.444-11.495-4.695c-6.011-2.173-12.434-2.8-18.735-3.417c-6.521-0.638-13.063,0.389-19.47,1.406
				c-6.239,0.99-12.108,3.519-17.852,5.999c-7.582,3.275-13.979,8.575-20.053,14.028c-2.468,2.218-6.339,6.678-8.205,9.421
				c-1.215,1.639-2.356,3.326-3.424,5.06c-3.325,5.87-2.634,4.518-5.474,10.651c-4.331,9.359-5.733,20.203-6.833,30.345
				c0.37-0.097,0.677-0.303,0.923-0.62c0.993-0.942,1.965-1.904,2.92-2.885c0.965-0.972,1.91-1.961,2.836-2.971
				C35.666,120.666,35.866,120.355,35.958,119.984z"/>
			<path opacity="0.1091" fill="#22B573" d="M36.892,120.348c0.125-2.07,0.249-4.141,0.372-6.211
				c0.685-6.041,2.186-11.85,4.499-17.429c2-5.535,5.511-10.397,8.907-15.123c3.395-4.727,7.952-8.483,12.39-12.158
				c6.029-4.991,13.344-8.097,20.578-10.831c5.625-2.126,11.661-2.802,17.583-3.467c6.202-0.696,12.448,0.187,18.569,1.059
				c6.024,0.857,11.706,3.25,17.256,5.592c7.258,3.063,13.448,8.146,19.263,13.322c4.361,3.884,7.709,8.739,10.995,13.506
				c3.329,4.831,5.424,10.364,7.477,15.804c2.112,5.595,2.788,11.591,3.448,17.479c0.285,4.099,0.223,8.192-0.186,12.282
				c-0.295,2.045-0.59,4.089-0.884,6.135c-35.677,16.254-71.354,32.509-107.032,48.762c-5.222-2.711-9.685-6.651-14.057-10.511
				c-5.854-5.168-10.111-11.84-13.996-18.513c-2.97-5.103-4.635-10.82-6.266-16.439c-2.274-7.842-2.156-16.111-1.718-24.162
				c0.047-0.881-1.185,1.595-1.002,1.221c-0.428,0.883-0.839,1.773-1.23,2.672c-0.239,0.458-0.411,0.94-0.515,1.445
				c-0.068,4.228,0.221,8.432,0.868,12.611c0.632,4.064,1.597,8.048,2.897,11.951c2.789,9.707,8.671,18.179,14.983,25.876
				c6.413,7.82,15.11,13.316,23.946,17.938c3.716,1.754,7.55,3.188,11.505,4.305c6.061,1.986,12.489,2.388,18.793,2.784
				c10.539,0.663,20.926-2.211,30.67-5.851c9.533-3.562,17.594-10.108,24.842-17.041c7.373-7.054,12.189-16.24,16.093-25.51
				c1.448-3.889,2.557-7.874,3.328-11.951c1.46-6.264,1.268-12.761,1.078-19.123c-0.248-8.334-2.952-16.363-5.923-24.042
				c-3.658-9.458-10.296-17.404-17.295-24.535c-7.137-7.269-16.366-11.978-25.657-15.787c-3.902-1.415-7.894-2.494-11.976-3.24
				c-6.272-1.418-12.767-1.208-19.132-0.999c-10.365,0.339-20.26,4.104-29.463,8.544c-9.056,4.368-16.395,11.52-22.897,19.002
				c-2.503,3.128-4.731,6.441-6.684,9.94c-3.206,5.222-5.008,11.132-6.766,16.941c-0.468,2.032-0.896,4.072-1.282,6.121
				c-0.902,4.32-1.193,7.682-1.634,12.038c0.266,0.015,0.498-0.082,0.695-0.291c0.722-0.544,1.428-1.11,2.116-1.697
				C34.914,122.375,36.843,121.16,36.892,120.348z"/>
			<path opacity="0.1091" fill="#22B573" d="M38.626,120.391c0.253-4.045,0.508-8.09,0.763-12.136
				c0.822-3.916,2.039-7.703,3.651-11.363c2.754-7.242,7.83-13.362,12.929-19.037c3.842-4.277,8.707-7.488,13.453-10.634
				c6.487-4.3,14.038-6.598,21.48-8.536c5.832-1.52,11.921-1.541,17.891-1.568c8.226-0.037,16.197,2.317,23.862,5.011
				c5.58,1.96,10.561,5.29,15.433,8.544c6.422,4.29,11.485,10.268,16.183,16.29c3.572,4.58,5.975,9.924,8.331,15.18
				c3.247,7.242,4.3,15.203,5,23.012c0.551,6.17-0.485,12.342-1.509,18.391c-2.877,13.311-9.406,25.064-19.585,35.261
				c-2.767,2.703-5.732,5.17-8.895,7.398c-1.622,1.049-3.244,2.099-4.868,3.147c-33.99,13.92-61.864,11.513-83.621-7.223
				c-6.062-4.817-10.625-11.211-14.818-17.618c-3.185-4.867-5.135-10.402-7.045-15.844c-3.322-9.47-3.334-19.841-2.542-29.685
				c0.032-0.399-0.617-0.162-0.648,0.221c-0.602,7.868-0.479,4.327-0.425,12.157c0.042,5.98,1.568,11.83,3.074,17.562
				c1.492,5.682,4.35,10.893,7.149,15.999c3.766,6.87,9.362,12.51,15.038,17.784c5.82,5.409,12.951,8.985,20.12,12.186
				c1.911,0.854,3.909,1.56,5.935,2.075c4.063,1.031,8.005,2.203,12.217,2.521c6.152,0.467,12.434,0.936,18.563-0.149
				c6.522-1.154,5.066-0.822,11.44-2.505c3.958-1.044,7.589-2.822,11.301-4.487c9.031-4.05,16.408-10.825,23.038-17.989
				c1.408-1.522,2.698-3.184,3.838-4.919c2.158-3.288,4.509-6.6,6.088-10.229c0.802-1.841,1.603-3.683,2.403-5.523
				c1.472-3.824,2.601-7.748,3.389-11.77c1.485-6.148,1.33-12.555,1.176-18.813c-0.151-6.068-1.839-11.974-3.5-17.751
				c-2.169-7.546-6.453-14.278-10.879-20.652c-4.428-6.375-10.471-11.307-16.596-15.925c-4.58-3.455-10.444-6.533-15.896-8.317
				c-5.798-1.898-11.699-3.759-17.844-4.127c-2.008-0.119-4.015-0.24-6.023-0.36c-4.05-0.075-8.079,0.186-12.086,0.782
				c-7.819,0.835-15.192,3.887-22.236,7.172c-5.25,2.449-9.795,6.112-14.256,9.728c-4.505,3.651-7.986,8.344-11.394,12.969
				c-3.515,4.772-5.628,10.352-7.684,15.84c-1.18,3.974-2.077,8.011-2.688,12.112c-0.223,1.958-0.028,3.918,0.585,5.879
				C37.965,120.863,38.643,120.67,38.626,120.391z"/>
		</g>
	</g>
</g>
<text transform="matrix(0.7376 0 0 1 61.3936 134.0186)" fill="#F3CB69" stroke="#F3CB69" stroke-miterlimit="10" font-family="'AEZbasic-font'" font-size="64.6535">B</text>
<text transform="matrix(0.7376 0 0 1 136.9355 130.9023)" fill="#A1BBE5" stroke="#A1BBE5" stroke-miterlimit="10" font-family="'AEZbasic-font'" font-size="64.6535">T</text>
<text transform="matrix(1 0 0 1 200.0039 190.5859)" fill="#29ABE2" font-family="'AEZbasic-font'" font-size="132.1167">BABYTRACKER</text>
</svg>
